<svg xmlns="http://www.w3.org/2000/svg" viewBox="0 0 309.73 330"><g id="ed33503a-1526-470c-a076-d44b99410571" data-name="Calque 2"><g id="bad909d5-5607-4fab-9d10-19979599a828" data-name="—ÎÓÈ_1"><path d="M283.12,200.12a91.31,91.31,0,1,1-91.31-91.31A91.32,91.32,0,0,1,283.12,200.12Z" style="fill:#f1f7f8;opacity:0.85"/><path d="M130.35,252.12H41.67a8.48,8.48,0,0,1-8.47-8.46V108.72a8.48,8.48,0,0,1,8.47-8.47h88.68a8.48,8.48,0,0,1,8.47,8.47V243.66A8.48,8.48,0,0,1,130.35,252.12Z" style="fill:#03abf2;opacity:0.13"/><rect x="47.5" y="116.6" width="77" height="26" style="fill:#03abf2"/><path d="M283.71,166.59a1.75,1.75,0,0,1-1.75-1.75V120.32a1.75,1.75,0,0,1,3.49,0v44.52A1.75,1.75,0,0,1,283.71,166.59Z" style="fill:#f9a106"/><polygon points="276.57 124.75 277.85 125.94 283.71 119.64 289.57 125.94 290.85 124.75 283.71 117.07 276.57 124.75" style="fill:#f9a106"/><path d="M62.9,285.35h-.53a8.62,8.62,0,1,1,.53,0Zm0-13.56a5,5,0,1,0,5,5.34,5,5,0,0,0-4.72-5.33Z" style="fill:#1c428c"/><path d="M232.74,58.35A1.32,1.32,0,0,1,231.43,57a1.29,1.29,0,0,1,1.31-1.29h16.58A1.29,1.29,0,0,1,250.63,57a1.31,1.31,0,0,1-1.31,1.31l-16.58,0Z" style="fill:#1c428c"/><path d="M241,66.21a1.16,1.16,0,0,1-1.31-1.11l0-16.68A1.4,1.4,0,0,1,241,47h0a1.49,1.49,0,0,1,1.31,1.5l0,16.49A1.23,1.23,0,0,1,241,66.21Z" style="fill:#1c428c"/><path d="M298.29,209.67l-11.43-11.43,11.43-11.44,11.44,11.44Zm-7.73-11.43,7.73,7.73,7.74-7.73-7.74-7.74Z" style="fill:#3fa9f5"/><path d="M253.16,205h-3.49V108L224.85,78.43H113.09a8.07,8.07,0,0,0-8.31,8V95h-3.49v-8.6a11.65,11.65,0,0,1,11.8-11.47H226.47l26.69,31.74Z" style="fill:#1c428c"/><path d="M208.64,277.43H113.09c-6.4,0-11.8-5.62-11.8-12.27v-7.8h3.49v7.8c0,4.68,3.88,8.78,8.31,8.78h95.55Z" style="fill:#1c428c"/><path d="M242.68,109.85H220.86V87.16a1.75,1.75,0,1,1,3.49,0v19.2h18.33a1.75,1.75,0,1,1,0,3.49Z" style="fill:#1c428c"/><path d="M130.35,252.12H41.67a8.47,8.47,0,0,1-8.46-8.46V108.72a8.47,8.47,0,0,1,8.46-8.47h88.68a8.48,8.48,0,0,1,8.47,8.47V243.66A8.48,8.48,0,0,1,130.35,252.12ZM41.67,103.74a5,5,0,0,0-5,5V243.66a5,5,0,0,0,5,5h88.68a5,5,0,0,0,5-5V108.72a5,5,0,0,0-5-5Z" style="fill:#03abf2"/><path d="M253.51,297.75a35.81,35.81,0,1,1,35.8-35.8A35.84,35.84,0,0,1,253.51,297.75Zm0-68.12A32.32,32.32,0,1,0,285.82,262,32.36,32.36,0,0,0,253.51,229.63Z" style="fill:#03abf2"/><path d="M251.47,271.61l-15.8-12.79a1.75,1.75,0,0,1,2.2-2.71l13,10.56,17.56-22.26a1.75,1.75,0,0,1,2.75,2.16Z" style="fill:#03abf2"/><path d="M263.63,224.19H242.68a1.74,1.74,0,0,1-1.74-1.74v-8.73a1.74,1.74,0,0,1,1.74-1.75h20.95a1.75,1.75,0,0,1,1.75,1.75v8.73A1.74,1.74,0,0,1,263.63,224.19Zm-19.2-3.49h17.46v-5.24H244.43Z" style="fill:#03abf2"/><path d="M167.85,172.89a15.06,15.06,0,1,1,15.06-15A15.07,15.07,0,0,1,167.85,172.89Zm0-26.62a11.57,11.57,0,1,0,11.57,11.57A11.58,11.58,0,0,0,167.85,146.27Z" style="fill:#f9a106"/><path d="M208.25,213.29a15.06,15.06,0,1,1,15.06-15.06A15.08,15.08,0,0,1,208.25,213.29Zm0-26.63a11.57,11.57,0,1,0,11.56,11.57A11.58,11.58,0,0,0,208.25,186.66Z" style="fill:#f9a106"/><rect x="150.45" y="175.83" width="77.95" height="3.49" transform="translate(-69.66 194.58) rotate(-46.9)" style="fill:#f9a106"/><path d="M157.15,114.21a1.74,1.74,0,0,1-1.75-1.74V67.32l-14-11v-25a1.75,1.75,0,1,1,3.49,0V54.65l14,11v46.84A1.74,1.74,0,0,1,157.15,114.21Z" style="fill:#f9a106"/><polygon points="134.55 37.55 136.08 38.98 143.11 31.41 150.15 38.98 151.68 37.55 143.11 28.34 134.55 37.55" style="fill:#f9a106"/><path d="M97.79,137.78A1.74,1.74,0,0,1,96.05,136v-13.1a1.75,1.75,0,0,1,3.49,0V136A1.74,1.74,0,0,1,97.79,137.78Z" style="fill:#fff"/><path d="M83.83,137.78A1.75,1.75,0,0,1,82.08,136v-13.1a1.75,1.75,0,0,1,3.49,0V136A1.74,1.74,0,0,1,83.83,137.78Z" style="fill:#fff"/><path d="M111.76,137.78A1.75,1.75,0,0,1,110,136v-13.1a1.75,1.75,0,0,1,3.5,0V136A1.75,1.75,0,0,1,111.76,137.78Z" style="fill:#fff"/><path d="M14.88,272.2a1.75,1.75,0,0,1-1.75-1.75v-48a1.75,1.75,0,1,1,3.49,0v48A1.74,1.74,0,0,1,14.88,272.2Z" style="fill:#1c428c"/><polygon points="7.74 227.28 9.02 228.47 14.88 222.16 20.74 228.47 22.02 227.28 14.88 219.6 7.74 227.28" style="fill:#1c428c"/><path d="M124.85,238.16H46.3V157h78.55Zm-75.06-3.49h71.57V160.48H49.79Z" style="fill:#03abf2"/><path d="M101.29,238.16H69.86V157h31.43Zm-27.94-3.49H97.79V160.48H73.35Z" style="fill:#03abf2"/><path d="M122.23,184H48a1.75,1.75,0,0,1,0-3.49h74.19a1.75,1.75,0,1,1,0,3.49Z" style="fill:#03abf2"/><path d="M98.67,211.1H48a1.75,1.75,0,0,1,0-3.49H98.67a1.75,1.75,0,0,1,0,3.49Z" style="fill:#03abf2"/><path d="M125.73,145.64H46.3v-32.3h79.43Zm-75.94-3.49h72.44V116.83H49.79Z" style="fill:#03abf2"/><path d="M61.14,128.18a1.75,1.75,0,0,1-1.75-1.75v-48a1.75,1.75,0,1,1,3.49,0v48A1.74,1.74,0,0,1,61.14,128.18Z" style="fill:#1c428c"/><polygon points="54.05 83.26 55.33 84.45 61.18 78.15 67.05 84.45 68.32 83.26 61.18 75.58 54.05 83.26" style="fill:#1c428c"/><rect x="242.5" y="212.6" width="22" height="10" style="fill:#03abf2;opacity:0.78"/><rect x="220" width="7" height="14" style="fill:#03abf2;opacity:0.33"/><rect x="220" y="21" width="7" height="14" style="fill:#03abf2;opacity:0.33"/><rect x="230.5" y="10.5" width="7" height="14" transform="translate(216.5 251.5) rotate(-90)" style="fill:#03abf2;opacity:0.33"/><rect x="209.5" y="10.5" width="7" height="14" transform="translate(195.5 230.5) rotate(-90)" style="fill:#03abf2;opacity:0.33"/><rect x="14" y="295" width="7" height="14" style="fill:#03abf2;opacity:0.33"/><rect x="14" y="316" width="7" height="14" style="fill:#03abf2;opacity:0.33"/><rect x="24.5" y="305.5" width="7" height="14" transform="translate(-284.5 340.5) rotate(-90)" style="fill:#03abf2;opacity:0.33"/><rect x="3.5" y="305.5" width="7" height="14" transform="translate(-305.5 319.5) rotate(-90)" style="fill:#03abf2;opacity:0.33"/></g></g></svg>