<svg xmlns="http://www.w3.org/2000/svg" viewBox="0 0 453 262.16"><g id="b0f05424-8a09-4b60-bc13-abce9c657ffa" data-name="Calque 2"><g id="a38a6778-d372-4414-9b8b-20d6b858009f" data-name="—ÎÓÈ_1"><circle cx="181.17" cy="139.91" r="91.31" transform="matrix(0.13, -0.99, 0.99, 0.13, 19.58, 302.03)" style="fill:#f1f7f8;opacity:0.85"/><path d="M175,66.64a1.74,1.74,0,0,1-1.74-1.74V28.24a1.75,1.75,0,1,1,3.49,0V64.9A1.74,1.74,0,0,1,175,66.64Z" style="fill:#1c428c"/><polygon points="167.95 33.13 169.22 34.32 175.08 28.01 180.95 34.32 182.22 33.13 175.08 25.45 167.95 33.13" style="fill:#1c428c"/><path d="M292,59.66a1.74,1.74,0,0,1-1.74-1.75V37.84a1.75,1.75,0,1,1,3.49,0V57.91A1.75,1.75,0,0,1,292,59.66Z" style="fill:#1c428c"/><path d="M193.31,101a1.74,1.74,0,0,1-1.75-1.74V75.17a1.75,1.75,0,0,1,3.49,0V99.25A1.74,1.74,0,0,1,193.31,101Z" style="fill:#1c428c"/><polygon points="284.91 42.61 286.19 43.8 292.05 37.49 297.91 43.8 299.19 42.61 292.05 34.93 284.91 42.61" style="fill:#1c428c"/><path d="M325.14,84.1a1.74,1.74,0,0,1-1.74-1.75V2.93a1.75,1.75,0,1,1,3.49,0V82.35A1.75,1.75,0,0,1,325.14,84.1Z" style="fill:#1c428c"/><polygon points="318.04 7.68 319.32 8.87 325.18 2.56 331.04 8.87 332.32 7.68 325.18 0 318.04 7.68" style="fill:#1c428c"/><path d="M104.57,89.77h0s0,.11,0,.17S104.58,89.83,104.57,89.77Z" style="fill:#f98506"/><path d="M104.55,89.76,97.63,55.22a1.74,1.74,0,0,0-1.39-1.37A51.75,51.75,0,0,0,35.86,95.09a1.74,1.74,0,0,0,.86,1.85l30.66,17.2a1.75,1.75,0,0,0,.85.23h.12A1.74,1.74,0,0,0,70,113.25c.1-.24.21-.47.31-.7l-2.56,1.7h0l2.56-1.7c.23-.56.46-1.12.72-1.66A33.29,33.29,0,0,1,83.54,97.17,37,37,0,0,1,100,92l1.33-.08,3.17-2.12ZM67.46,110.29c-.25.55-.5,1.1-.72,1.67C67,111.39,67.21,110.84,67.46,110.29Zm35.39-21.92h0a1.71,1.71,0,0,1,1.67,1.39A1.72,1.72,0,0,0,102.85,88.37Z" style="fill:#f9a106"/><path d="M104.5,90.12h0c0-.06,0-.12,0-.18s0-.11,0-.16l-3.19,2.12c.5,0,1,0,1.51,0,.07,0,.13-.23.2-.23s.09-.23.14-.23h0c.12,0,.23.15.34.11s0,.09,0,.08.17,0,.25-.08.1-.05.14-.09a.83.83,0,0,1,.12-.08l.11-.13.1-.12s0-.1.08-.14.06-.1.08-.16a1.32,1.32,0,0,0,.09-.3s0,0,0,0A2.11,2.11,0,0,0,104.5,90.12Z" style="fill:#f98506"/><path d="M362.67,167.89a1.74,1.74,0,0,1-1.74-1.74V103L348.71,86.75V64a1.75,1.75,0,0,1,3.49,0V85.58l12.22,16.22v64.35A1.74,1.74,0,0,1,362.67,167.89Z" style="fill:#3fa9f5"/><polygon points="341.95 70.4 343.49 71.83 350.52 64.26 357.55 71.83 359.08 70.4 350.52 61.18 341.95 70.4" style="fill:#3fa9f5"/><path d="M27.79,198.85,17.63,188.68l10.16-10.17L38,188.68Zm-6.46-10.17,6.46,6.47,6.47-6.47-6.47-6.46Z" style="fill:#3fa9f5"/><path d="M228.3,92.48,215,79.17l13.3-13.3,13.31,13.3Zm-9.6-13.31,9.6,9.61,9.61-9.61-9.61-9.6Z" style="fill:#3fa9f5"/><polygon points="275.39 169.64 271.9 169.64 271.9 79.73 301.57 79.73 301.57 168.76 298.08 168.76 298.08 83.23 275.39 83.23 275.39 169.64" style="fill:#03abf2"/><polygon points="223.89 186.22 220.4 186.22 220.4 143.45 198.58 143.45 198.58 166.15 195.09 166.15 195.09 139.96 223.89 139.96 223.89 186.22" style="fill:#3fa9f5"/><polygon points="339.98 216.77 336.49 216.77 336.49 118.14 314.67 118.14 314.67 176.62 311.18 176.62 311.18 114.65 339.98 114.65 339.98 216.77" style="fill:#3fa9f5"/><polygon points="236.98 194.95 233.49 194.95 233.49 107.67 261.42 107.67 261.42 183.6 257.93 183.6 257.93 111.16 236.98 111.16 236.98 194.95" style="fill:#03abf2"/><rect x="24.01" y="258.66" width="359.61" height="3.49" style="fill:#1c428c"/><rect x="131.37" y="226.37" width="3.49" height="33.17" style="fill:#1c428c"/><rect x="210.8" y="241.21" width="3.49" height="19.2" style="fill:#1c428c"/><rect x="148.83" y="249.94" width="3.49" height="10.47" style="fill:#1c428c"/><rect x="169.78" y="249.94" width="3.49" height="10.47" style="fill:#1c428c"/><rect x="92.1" y="250.81" width="3.49" height="10.47" style="fill:#1c428c"/><rect x="113.04" y="250.81" width="3.49" height="10.47" style="fill:#1c428c"/><rect x="190.73" y="249.94" width="3.49" height="10.47" style="fill:#1c428c"/><rect x="231.75" y="249.94" width="3.49" height="10.47" style="fill:#1c428c"/><rect x="252.7" y="249.94" width="3.49" height="10.47" style="fill:#1c428c"/><rect x="274.52" y="249.94" width="3.49" height="10.47" style="fill:#1c428c"/><rect x="295.46" y="226.37" width="3.49" height="33.17" style="fill:#1c428c"/><path d="M174.25,141a70.9,70.9,0,0,0-70.78-83.95,1.66,1.66,0,1,0,0,3.32h0a73.28,73.28,0,0,1,13.59,1.26,67.47,67.47,0,0,1,53.71,78.69,68.61,68.61,0,0,1-2.7,10c1,.65,2,1.34,3,2.06A71.53,71.53,0,0,0,174.25,141Z" style="fill:#03abf2"/><path d="M52.3,170.24l-.45.31a1.67,1.67,0,0,1-1,.32,1.75,1.75,0,0,1-1-3.18l.33-.23c-.38-.52-.77-1-1.14-1.57a66.9,66.9,0,0,1-10.56-50.44A68.88,68.88,0,0,1,41.34,105a1.75,1.75,0,1,0-3.29-1.19,72.47,72.47,0,0,0-3,11,70.84,70.84,0,0,0,35.77,75.35c.62-1,1.26-2,1.89-2.94A66.81,66.81,0,0,1,52.3,170.24Z" style="fill:#03abf2"/><path d="M49.42,170.12a1.75,1.75,0,0,0,1.44.75,1.67,1.67,0,0,0,1-.32l.45-.31,23.76-16.6c-.86-.81-1.68-1.65-2.46-2.54L50.18,167.46l-.33.23A1.75,1.75,0,0,0,49.42,170.12Z" style="fill:#03abf2"/><path d="M131.48,69.76a1.74,1.74,0,1,0-3.24-1.29l-9.45,23.91q1.58.8,3.06,1.74Z" style="fill:#03abf2"/><path d="M104.57,89.77h0s0,.11,0,.17S104.58,89.83,104.57,89.77Z" style="fill:#03abf2"/><path d="M103.59,91.7l0,0Z" style="fill:#03abf2"/><path d="M104,91.44a.81.81,0,0,1-.14.12A.81.81,0,0,0,104,91.44Z" style="fill:#03abf2"/><path d="M104.21,91.21a1.71,1.71,0,0,1-.11.14A1.71,1.71,0,0,0,104.21,91.21Z" style="fill:#03abf2"/><path d="M103.2,91.83Z" style="fill:#03abf2"/><path d="M36.72,96.94l30.66,17.2a1.75,1.75,0,0,0,.85.23h0a1.79,1.79,0,0,1-.55-.11,1.75,1.75,0,0,1-1-2.26c.23-.61.5-1.19.77-1.78l-28-15.69A48.27,48.27,0,0,1,94.45,57.08l6.29,31.37c.71,0,1.42-.08,2.12-.08a1.76,1.76,0,0,1,1.71,1.39L97.64,55.22a1.74,1.74,0,0,0-1.39-1.37A51.76,51.76,0,0,0,35.86,95.09,1.75,1.75,0,0,0,36.72,96.94Z" style="fill:#f9a106"/><path d="M104.56,90.5a1.4,1.4,0,0,1-.09.29A1.4,1.4,0,0,0,104.56,90.5Z" style="fill:#03abf2"/><path d="M104.39,91s0,.09-.08.14S104.36,91,104.39,91Z" style="fill:#03abf2"/><path d="M104.6,90.12a2,2,0,0,1,0,.35A2,2,0,0,0,104.6,90.12Z" style="fill:#03abf2"/><path d="M76.06,153.64a37.67,37.67,0,0,0,16.39,9c1-1,2-2,3-2.92a34.27,34.27,0,0,1-27.19-40.25,1.77,1.77,0,0,0-.26-1.3,1.81,1.81,0,0,0-1.12-.75,1.76,1.76,0,0,0-2,1.38,38.46,38.46,0,0,0-.7,7.28,37.56,37.56,0,0,0,9.49,25C74.38,152,75.2,152.83,76.06,153.64Z" style="fill:#03abf2"/><path d="M108.76,92.56a34.27,34.27,0,0,1,24.07,48.19c1.22,0,2.48,0,3.77.12a37.69,37.69,0,0,0-14.75-46.75q-1.48-.95-3.06-1.74a37.22,37.22,0,0,0-9.33-3.24,1.76,1.76,0,0,0-2.06,1.36,1.78,1.78,0,0,0,.26,1.32A1.75,1.75,0,0,0,108.76,92.56Z" style="fill:#03abf2"/><path d="M102.86,88.37c-.7,0-1.41,0-2.12.08a40.7,40.7,0,0,0-19.07,5.77,36.5,36.5,0,0,0-14.17,16c-.27.59-.54,1.17-.77,1.78a1.75,1.75,0,0,0,1,2.26,1.79,1.79,0,0,0,.55.11h.07A1.74,1.74,0,0,0,70,113.25c.31-.81.66-1.59,1-2.36A33.29,33.29,0,0,1,83.54,97.17,37,37,0,0,1,100,92c1-.07,1.91-.12,2.86-.12l.2,0h.14a1.91,1.91,0,0,0,.34-.1l0,0a1.57,1.57,0,0,0,.25-.14.81.81,0,0,0,.14-.12l.12-.09a1.71,1.71,0,0,0,.11-.14l.1-.12s0-.1.08-.14.06-.1.08-.16a1.4,1.4,0,0,0,.09-.29s0,0,0,0a2.11,2.11,0,0,0,0-.35h0c0-.06,0-.12,0-.18s0-.12,0-.17h0A1.75,1.75,0,0,0,102.86,88.37Z" style="fill:#f9a106"/><path d="M338.44,232.92a7.32,7.32,0,0,1-1.6-.17c-7.18-1.57-14.3-12.54-22.55-25.24-9.25-14.24-19.74-30.38-29.93-30.85-4.08-.2-7.95,2.11-11.86,7.05-1,1.27-2,2.59-3,3.92-7.54,9.85-16.08,21-30.28,21.94C224,210.57,205,199.38,181,175.36c-17-17-32.53-24.64-47.44-23.19C109,154.53,90.71,181.71,76,203.55c-6,8.85-11.59,17.21-16.88,22.78a8.27,8.27,0,0,1-7.07,2.85c-7.13-.73-13.41-10.71-13.68-11.13a1.75,1.75,0,1,1,3-1.85c1.55,2.49,6.56,9.05,11.07,9.5a4.87,4.87,0,0,0,4.18-1.78c5.09-5.35,10.64-13.59,16.51-22.32,15.13-22.45,33.94-50.39,60.09-52.91,16-1.54,32.44,6.37,50.24,24.2,23.24,23.27,41.42,34.13,55.52,33.2,12.62-.83,20.31-10.87,27.74-20.58,1-1.35,2.05-2.68,3.07-4,4.59-5.81,9.57-8.63,14.76-8.38,12,.56,22.51,16.77,32.69,32.44,7.18,11,14.59,22.46,20.38,23.73,8.17,1.77,18.48-23.09,22.89-33.72,3.13-7.56,3.53-8.54,5.19-8.46a1.9,1.9,0,0,1,1.71,1.36,1.75,1.75,0,0,1-.93,2.11c-.58,1.11-1.68,3.76-2.75,6.33C356.44,214.47,348,232.92,338.44,232.92Z" style="fill:#f9a106"/><path d="M338.5,210.37v-94h-27v58.86c3,4,5.87,8.17,8.59,12.35C326.34,197.24,332.5,207.15,338.5,210.37Z" style="fill:#03abf2;opacity:0.33"/><path d="M287.63,161.17c3.72.17,6.87,1.86,10.87,4.56V82.4h-27v88.16c1-.34.82-.68,1.08-1C277.17,163.74,282.44,160.92,287.63,161.17Z" style="fill:#03abf2;opacity:0.66"/><path d="M242,188.09c7.46-.49,13.5-4.21,18.5-9.17V110.4h-27v77A32.23,32.23,0,0,0,242,188.09Z" style="fill:#03abf2;opacity:0.33"/><path d="M222.5,142.4h-27v21.44q15,13.23,27,19.22Z" style="fill:#03abf2;opacity:0.56"/><path d="M40,104s-5.75,27.5-3.5,33.75,12.25,31,12.25,31l26.5-17-8-18.75-.35-15.51Z" style="fill:#03abf2;opacity:0.16"/><rect x="432" y="189.79" width="7" height="14" style="fill:#03abf2;opacity:0.33"/><rect x="432" y="210.79" width="7" height="14" style="fill:#03abf2;opacity:0.33"/><rect x="442.5" y="200.29" width="7" height="14" transform="translate(238.71 653.29) rotate(-90)" style="fill:#03abf2;opacity:0.33"/><rect x="421.5" y="200.29" width="7" height="14" transform="translate(217.71 632.29) rotate(-90)" style="fill:#03abf2;opacity:0.33"/><rect x="14" y="4.79" width="7" height="14" style="fill:#03abf2;opacity:0.33"/><rect x="14" y="25.79" width="7" height="14" style="fill:#03abf2;opacity:0.33"/><rect x="24.5" y="15.29" width="7" height="14" transform="translate(5.71 50.29) rotate(-90)" style="fill:#03abf2;opacity:0.33"/><rect x="3.5" y="15.29" width="7" height="14" transform="translate(-15.29 29.29) rotate(-90)" style="fill:#03abf2;opacity:0.33"/></g></g></svg>