<svg xmlns="http://www.w3.org/2000/svg" viewBox="0 0 183.73 165.63"><defs><style>.cls-1{fill:#3166ae;}.cls-2{fill:#eb8329;}</style></defs><title>ball</title><path class="cls-1" d="M215.13,140.2v2.27a73.63,73.63,0,0,1-1.21,12.83,93.92,93.92,0,0,1-3.5,13.5,78.87,78.87,0,0,1-8.73,17.95,94.87,94.87,0,0,1-5.73,7.92c-.74.94-1.63,1.78-2.44,2.67-2.39,2.62-5,5-7.57,7.45a74.53,74.53,0,0,1-14.64,10.41A72.34,72.34,0,0,1,160,220.3,92.13,92.13,0,0,1,145.89,224a79.87,79.87,0,0,1-8.16.92c-3,.22-6,.2-9,.12A83.07,83.07,0,0,1,106.49,221a64.53,64.53,0,0,1-8.74-3.24,81.65,81.65,0,0,1-10.55-5.86c-2.54-1.77-5-3.59-7.42-5.61a94.26,94.26,0,0,1-7.33-6.66,69.33,69.33,0,0,1-10.27-13,110.19,110.19,0,0,1-7.35-15,80.83,80.83,0,0,1-4-14.58c-.43-2.28-.68-4.6-.92-6.92a75.69,75.69,0,0,1-.34-10.32,95.56,95.56,0,0,1,.95-10,77.13,77.13,0,0,1,3.84-15.18,91.45,91.45,0,0,1,7.2-15.16,69.87,69.87,0,0,1,6.26-9,81.09,81.09,0,0,1,8.66-9.21,115.21,115.21,0,0,1,11.08-8.73A45.29,45.29,0,0,1,92,70a86,86,0,0,1,15.19-6.61,76.75,76.75,0,0,1,12.69-3c2.24-.33,4.5-.55,6.76-.71,1.75-.13,3.48-.11,5.22-.15a75.44,75.44,0,0,1,13.59,1,78.3,78.3,0,0,1,26,8.79c3.34,1.83,6.8,3.49,9.77,6,.43.36.55.41,0,.82A31.16,31.16,0,0,1,168.63,82c-3,.67-6,.87-9,1.29-2,.29-3.46-.66-5.07-1.24a66.58,66.58,0,0,0-10.74-3,61.22,61.22,0,0,0-13.17-1,68.73,68.73,0,0,0-12.21,1.51A65.54,65.54,0,0,0,91.6,92.81a60.32,60.32,0,0,0-4.54,4.06,63.17,63.17,0,0,0-4.9,5.57,76,76,0,0,0-5.39,7.91,73,73,0,0,0-4.62,9.7A59,59,0,0,0,68.92,132a32.46,32.46,0,0,0-.67,6.45c0,1.27-.27,2.5-.23,3.77a70,70,0,0,0,3,19,63.93,63.93,0,0,0,9.29,18.41,90.66,90.66,0,0,0,5.93,7.2,44.69,44.69,0,0,0,9.07,8,71,71,0,0,0,18.36,9A62.7,62.7,0,0,0,124.08,206a60.4,60.4,0,0,0,21.61-.84,59.2,59.2,0,0,0,14-4.77c2.8-1.38,5.45-3,8.13-4.65a55.66,55.66,0,0,0,8.21-6.37,52,52,0,0,0,8.74-10c1.76-2.63,3.32-5.41,4.84-8.21a60.71,60.71,0,0,0,5.45-15,36.06,36.06,0,0,0,1.09-6.77,1.39,1.39,0,0,1,.3-.72,60.36,60.36,0,0,1,5-6.39,49.71,49.71,0,0,1,5.36-5.69c1.78-1.59,3.42-3.37,5.63-4.44a5.44,5.44,0,0,1,.54-.27c1.44-.56,1.78-.23,2,1.32C215.23,135.5,215,137.85,215.13,140.2Z" transform="translate(-49.47 -59.49)"/><path class="cls-1" d="M132.68,188.43c-24.24.39-47.78-20.58-46.57-48.38.58-13.27,5.85-24.14,15.47-33,9.13-8.47,20.12-12.21,32.43-11.9,9.69.24,18.77,2.86,26.47,9,12.66,10,19.49,23.08,19,39.46C178.73,167.35,158.55,188.58,132.68,188.43Z" transform="translate(-49.47 -59.49)"/><path class="cls-2" d="M203,72.41c10.78,0,17.17,2.74,22.39,8a26,26,0,0,1,7.83,18.86,25.65,25.65,0,0,1-8,19.18A26.7,26.7,0,0,1,204.4,126c-13.22-.86-25.6-11.48-24.85-28.28C180.12,84.64,190.79,72.27,203,72.41Z" transform="translate(-49.47 -59.49)"/></svg>
